<mxfile host="app.diagrams.net" agent="Mozilla/5.0 (Macintosh; Intel Mac OS X 10_15_7) AppleWebKit/537.36 (KHTML, like Gecko) Chrome/128.0.0.0 Safari/537.36" version="24.7.14">
  <diagram name="Страница — 1" id="xbnFKjU7z5Ql60mPrd5U">
    <mxGraphModel dx="1060" dy="672" grid="0" gridSize="10" guides="1" tooltips="1" connect="1" arrows="1" fold="1" page="0" pageScale="1" pageWidth="827" pageHeight="1169" math="0" shadow="0">
      <root>
        <mxCell id="0" />
        <mxCell id="1" parent="0" />
        <mxCell id="FvK3mN-A5cX9Fj2j0IP9-28" style="edgeStyle=orthogonalEdgeStyle;rounded=0;orthogonalLoop=1;jettySize=auto;html=1;exitX=1;exitY=0.5;exitDx=0;exitDy=0;endArrow=none;endFill=0;" edge="1" parent="1">
          <mxGeometry relative="1" as="geometry">
            <mxPoint x="210" y="336.5" as="sourcePoint" />
            <mxPoint x="608" y="121" as="targetPoint" />
            <Array as="points">
              <mxPoint x="210" y="370" />
              <mxPoint x="590" y="370" />
              <mxPoint x="590" y="110" />
              <mxPoint x="608" y="110" />
            </Array>
          </mxGeometry>
        </mxCell>
        <mxCell id="oDdCdlW6J0dr1nh9Fcjd-16" value="&lt;div&gt;&lt;br&gt;&lt;/div&gt;&lt;div&gt;&lt;br&gt;&lt;/div&gt;&lt;div&gt;&lt;br&gt;&lt;/div&gt;" style="shape=internalStorage;whiteSpace=wrap;html=1;backgroundOutline=1;" parent="1" vertex="1">
          <mxGeometry x="90" y="280" width="120" height="130" as="geometry" />
        </mxCell>
        <mxCell id="oDdCdlW6J0dr1nh9Fcjd-17" value="Subscription" style="text;html=1;align=center;verticalAlign=middle;whiteSpace=wrap;rounded=0;" parent="1" vertex="1">
          <mxGeometry x="120" y="280" width="60" height="20" as="geometry" />
        </mxCell>
        <mxCell id="oDdCdlW6J0dr1nh9Fcjd-18" value="&lt;div&gt;ID&lt;/div&gt;&lt;div&gt;ReaderID&lt;/div&gt;&lt;div&gt;SubscriptionType&lt;/div&gt;&lt;div&gt;PublicationType&lt;/div&gt;" style="text;html=1;align=left;verticalAlign=middle;whiteSpace=wrap;rounded=0;" parent="1" vertex="1">
          <mxGeometry x="110" y="300" width="60" height="60" as="geometry" />
        </mxCell>
        <mxCell id="oDdCdlW6J0dr1nh9Fcjd-21" value="PK" style="text;html=1;align=center;verticalAlign=middle;whiteSpace=wrap;rounded=0;" parent="1" vertex="1">
          <mxGeometry x="90" y="300" width="20" height="20" as="geometry" />
        </mxCell>
        <mxCell id="oDdCdlW6J0dr1nh9Fcjd-24" value="" style="shape=internalStorage;whiteSpace=wrap;html=1;backgroundOutline=1;" parent="1" vertex="1">
          <mxGeometry x="830" y="156" width="120" height="84" as="geometry" />
        </mxCell>
        <mxCell id="oDdCdlW6J0dr1nh9Fcjd-25" value="ReadingRoom" style="text;html=1;align=center;verticalAlign=middle;whiteSpace=wrap;rounded=0;" parent="1" vertex="1">
          <mxGeometry x="850" y="156" width="100" height="20" as="geometry" />
        </mxCell>
        <mxCell id="oDdCdlW6J0dr1nh9Fcjd-26" value="PK" style="text;html=1;align=center;verticalAlign=middle;whiteSpace=wrap;rounded=0;" parent="1" vertex="1">
          <mxGeometry x="830" y="179" width="20" height="10" as="geometry" />
        </mxCell>
        <mxCell id="oDdCdlW6J0dr1nh9Fcjd-27" value="LibraryID" style="text;html=1;align=left;verticalAlign=middle;whiteSpace=wrap;rounded=0;" parent="1" vertex="1">
          <mxGeometry x="851" y="201" width="100" height="30" as="geometry" />
        </mxCell>
        <mxCell id="oDdCdlW6J0dr1nh9Fcjd-37" value="" style="endArrow=none;html=1;rounded=0;entryX=-0.002;entryY=0.795;entryDx=0;entryDy=0;exitX=0;exitY=0.25;exitDx=0;exitDy=0;endFill=0;entryPerimeter=0;" parent="1" target="oDdCdlW6J0dr1nh9Fcjd-16" edge="1">
          <mxGeometry width="50" height="50" relative="1" as="geometry">
            <mxPoint x="102" y="491.5" as="sourcePoint" />
            <mxPoint x="100.91999999999985" y="383.43000000000006" as="targetPoint" />
            <Array as="points">
              <mxPoint x="52" y="492" />
              <mxPoint x="52" y="383" />
            </Array>
          </mxGeometry>
        </mxCell>
        <mxCell id="oDdCdlW6J0dr1nh9Fcjd-43" value="&lt;div&gt;&lt;br&gt;&lt;/div&gt;&lt;div&gt;&lt;br&gt;&lt;/div&gt;&lt;div&gt;&lt;br&gt;&lt;/div&gt;" style="shape=internalStorage;whiteSpace=wrap;html=1;backgroundOutline=1;" parent="1" vertex="1">
          <mxGeometry x="260" y="80" width="120" height="190" as="geometry" />
        </mxCell>
        <mxCell id="oDdCdlW6J0dr1nh9Fcjd-44" value="Reader" style="text;html=1;align=center;verticalAlign=middle;whiteSpace=wrap;rounded=0;" parent="1" vertex="1">
          <mxGeometry x="290" y="80" width="60" height="20" as="geometry" />
        </mxCell>
        <mxCell id="oDdCdlW6J0dr1nh9Fcjd-45" value="&lt;div&gt;ID&lt;/div&gt;&lt;div&gt;Name&lt;/div&gt;&lt;div&gt;Surname&lt;/div&gt;&lt;div&gt;Patronymic&lt;/div&gt;&lt;div&gt;Categoty&lt;/div&gt;&lt;div&gt;EducationPlace&lt;/div&gt;&lt;div&gt;Faculty&lt;/div&gt;&lt;div&gt;Course&lt;/div&gt;&lt;div&gt;GroupNumber&lt;/div&gt;&lt;div&gt;Organisation&lt;/div&gt;&lt;div&gt;ScienceTopic&lt;/div&gt;&lt;div&gt;&lt;br&gt;&lt;/div&gt;" style="text;html=1;align=left;verticalAlign=middle;whiteSpace=wrap;rounded=0;" parent="1" vertex="1">
          <mxGeometry x="280" y="160" width="60" height="60" as="geometry" />
        </mxCell>
        <mxCell id="oDdCdlW6J0dr1nh9Fcjd-46" value="PK" style="text;html=1;align=center;verticalAlign=middle;whiteSpace=wrap;rounded=0;" parent="1" vertex="1">
          <mxGeometry x="260" y="100" width="20" height="20" as="geometry" />
        </mxCell>
        <mxCell id="oDdCdlW6J0dr1nh9Fcjd-48" value="" style="endArrow=none;html=1;rounded=0;entryX=0;entryY=0.5;entryDx=0;entryDy=0;endFill=0;" parent="1" target="oDdCdlW6J0dr1nh9Fcjd-46" edge="1">
          <mxGeometry width="50" height="50" relative="1" as="geometry">
            <mxPoint x="209" y="320" as="sourcePoint" />
            <mxPoint x="410" y="290" as="targetPoint" />
            <Array as="points">
              <mxPoint x="240" y="320" />
              <mxPoint x="240" y="110" />
            </Array>
          </mxGeometry>
        </mxCell>
        <mxCell id="oDdCdlW6J0dr1nh9Fcjd-50" value="" style="endArrow=none;html=1;rounded=0;shape=link;width=-3.913043478260869;" parent="1" edge="1">
          <mxGeometry width="50" height="50" relative="1" as="geometry">
            <mxPoint x="220" y="329" as="sourcePoint" />
            <mxPoint x="220" y="309" as="targetPoint" />
          </mxGeometry>
        </mxCell>
        <mxCell id="oDdCdlW6J0dr1nh9Fcjd-55" value="&lt;div&gt;&lt;br&gt;&lt;/div&gt;&lt;div&gt;&lt;br&gt;&lt;/div&gt;&lt;div&gt;&lt;br&gt;&lt;/div&gt;" style="shape=internalStorage;whiteSpace=wrap;html=1;backgroundOutline=1;" parent="1" vertex="1">
          <mxGeometry x="388" y="520" width="120" height="111" as="geometry" />
        </mxCell>
        <mxCell id="oDdCdlW6J0dr1nh9Fcjd-56" value="Author" style="text;html=1;align=center;verticalAlign=middle;whiteSpace=wrap;rounded=0;" parent="1" vertex="1">
          <mxGeometry x="418" y="520" width="60" height="20" as="geometry" />
        </mxCell>
        <mxCell id="oDdCdlW6J0dr1nh9Fcjd-57" value="&lt;div&gt;ID&lt;/div&gt;&lt;div&gt;Name&lt;/div&gt;&lt;div&gt;Surname&lt;/div&gt;&lt;div&gt;Patronymic&lt;/div&gt;&lt;div style=&quot;&quot;&gt;BirthYear&lt;/div&gt;" style="text;html=1;align=left;verticalAlign=middle;whiteSpace=wrap;rounded=0;" parent="1" vertex="1">
          <mxGeometry x="414" y="547" width="68" height="63" as="geometry" />
        </mxCell>
        <mxCell id="oDdCdlW6J0dr1nh9Fcjd-58" value="PK" style="text;html=1;align=center;verticalAlign=middle;whiteSpace=wrap;rounded=0;" parent="1" vertex="1">
          <mxGeometry x="388" y="540" width="20" height="20" as="geometry" />
        </mxCell>
        <mxCell id="oDdCdlW6J0dr1nh9Fcjd-64" value="&lt;div&gt;&lt;br&gt;&lt;/div&gt;&lt;div&gt;&lt;br&gt;&lt;/div&gt;&lt;div&gt;&lt;br&gt;&lt;/div&gt;" style="shape=internalStorage;whiteSpace=wrap;html=1;backgroundOutline=1;" parent="1" vertex="1">
          <mxGeometry x="608" y="80" width="120" height="100" as="geometry" />
        </mxCell>
        <mxCell id="oDdCdlW6J0dr1nh9Fcjd-65" value="Library" style="text;html=1;align=center;verticalAlign=middle;whiteSpace=wrap;rounded=0;" parent="1" vertex="1">
          <mxGeometry x="638" y="80" width="60" height="20" as="geometry" />
        </mxCell>
        <mxCell id="oDdCdlW6J0dr1nh9Fcjd-66" value="ID&lt;div&gt;Adress&lt;/div&gt;&lt;div&gt;Name&lt;/div&gt;" style="text;html=1;align=left;verticalAlign=middle;whiteSpace=wrap;rounded=0;" parent="1" vertex="1">
          <mxGeometry x="633" y="96" width="58" height="60" as="geometry" />
        </mxCell>
        <mxCell id="oDdCdlW6J0dr1nh9Fcjd-67" value="PK" style="text;html=1;align=center;verticalAlign=middle;whiteSpace=wrap;rounded=0;" parent="1" vertex="1">
          <mxGeometry x="608" y="100" width="20" height="20" as="geometry" />
        </mxCell>
        <mxCell id="oDdCdlW6J0dr1nh9Fcjd-80" value="&lt;div&gt;&lt;br&gt;&lt;/div&gt;&lt;div&gt;&lt;br&gt;&lt;/div&gt;&lt;div&gt;&lt;br&gt;&lt;/div&gt;" style="shape=internalStorage;whiteSpace=wrap;html=1;backgroundOutline=1;" parent="1" vertex="1">
          <mxGeometry x="588" y="521" width="142" height="109" as="geometry" />
        </mxCell>
        <mxCell id="oDdCdlW6J0dr1nh9Fcjd-81" value="Book" style="text;html=1;align=center;verticalAlign=middle;whiteSpace=wrap;rounded=0;" parent="1" vertex="1">
          <mxGeometry x="618" y="521" width="60" height="20" as="geometry" />
        </mxCell>
        <mxCell id="oDdCdlW6J0dr1nh9Fcjd-82" value="ID&lt;div&gt;NomenclatureNumber&lt;/div&gt;&lt;div&gt;Name&lt;/div&gt;&lt;div&gt;Genre&lt;/div&gt;&lt;div&gt;PublicationYear&lt;/div&gt;" style="text;html=1;align=left;verticalAlign=middle;whiteSpace=wrap;rounded=0;" parent="1" vertex="1">
          <mxGeometry x="610" y="559.5" width="58" height="43" as="geometry" />
        </mxCell>
        <mxCell id="oDdCdlW6J0dr1nh9Fcjd-83" value="PK" style="text;html=1;align=center;verticalAlign=middle;whiteSpace=wrap;rounded=0;" parent="1" vertex="1">
          <mxGeometry x="588" y="541" width="20" height="20" as="geometry" />
        </mxCell>
        <mxCell id="oDdCdlW6J0dr1nh9Fcjd-84" value="FK" style="text;html=1;align=center;verticalAlign=middle;whiteSpace=wrap;rounded=0;" parent="1" vertex="1">
          <mxGeometry x="388" y="617" width="20" height="10" as="geometry" />
        </mxCell>
        <mxCell id="oDdCdlW6J0dr1nh9Fcjd-105" value="" style="shape=internalStorage;whiteSpace=wrap;html=1;backgroundOutline=1;" parent="1" vertex="1">
          <mxGeometry x="818" y="521" width="120" height="119" as="geometry" />
        </mxCell>
        <mxCell id="oDdCdlW6J0dr1nh9Fcjd-106" value="CopyBook" style="text;html=1;align=center;verticalAlign=middle;whiteSpace=wrap;rounded=0;" parent="1" vertex="1">
          <mxGeometry x="838" y="521" width="100" height="20" as="geometry" />
        </mxCell>
        <mxCell id="oDdCdlW6J0dr1nh9Fcjd-107" value="PK" style="text;html=1;align=center;verticalAlign=middle;whiteSpace=wrap;rounded=0;" parent="1" vertex="1">
          <mxGeometry x="818" y="547" width="20" height="10" as="geometry" />
        </mxCell>
        <mxCell id="oDdCdlW6J0dr1nh9Fcjd-109" value="&lt;div style=&quot;text-align: left;&quot;&gt;ID&lt;br&gt;&lt;/div&gt;&lt;div&gt;ShelfNumber&lt;/div&gt;&lt;div&gt;RackNumber&lt;/div&gt;&lt;div&gt;&lt;br&gt;&lt;/div&gt;&lt;div&gt;&lt;br&gt;&lt;/div&gt;&lt;div&gt;&lt;br&gt;&lt;/div&gt;&lt;div&gt;&lt;br&gt;&lt;/div&gt;&lt;div&gt;&lt;br&gt;&lt;/div&gt;" style="text;html=1;align=center;verticalAlign=middle;whiteSpace=wrap;rounded=0;" parent="1" vertex="1">
          <mxGeometry x="828" y="594" width="100" height="13" as="geometry" />
        </mxCell>
        <mxCell id="FvK3mN-A5cX9Fj2j0IP9-6" value="" style="shape=internalStorage;whiteSpace=wrap;html=1;backgroundOutline=1;" vertex="1" parent="1">
          <mxGeometry x="90" y="460" width="167" height="80" as="geometry" />
        </mxCell>
        <mxCell id="FvK3mN-A5cX9Fj2j0IP9-7" value="&lt;span style=&quot;font-family: Verdana; background-color: rgb(255, 255, 255); font-size: 11px;&quot;&gt;IssueAndReturnHistory&lt;/span&gt;" style="text;html=1;align=center;verticalAlign=middle;whiteSpace=wrap;rounded=0;" vertex="1" parent="1">
          <mxGeometry x="135" y="460" width="100" height="20" as="geometry" />
        </mxCell>
        <mxCell id="FvK3mN-A5cX9Fj2j0IP9-8" value="PK" style="text;html=1;align=center;verticalAlign=middle;whiteSpace=wrap;rounded=0;" vertex="1" parent="1">
          <mxGeometry x="90" y="491" width="20" height="10" as="geometry" />
        </mxCell>
        <mxCell id="FvK3mN-A5cX9Fj2j0IP9-9" value="ID&lt;div&gt;Type&lt;br&gt;&lt;/div&gt;&lt;div style=&quot;&quot;&gt;Data&lt;/div&gt;" style="text;html=1;align=left;verticalAlign=middle;whiteSpace=wrap;rounded=0;" vertex="1" parent="1">
          <mxGeometry x="115" y="501" width="50" height="20" as="geometry" />
        </mxCell>
        <mxCell id="FvK3mN-A5cX9Fj2j0IP9-12" value="" style="shape=internalStorage;whiteSpace=wrap;html=1;backgroundOutline=1;" vertex="1" parent="1">
          <mxGeometry x="827" y="273" width="120" height="97" as="geometry" />
        </mxCell>
        <mxCell id="FvK3mN-A5cX9Fj2j0IP9-13" value="StorageRoom" style="text;html=1;align=center;verticalAlign=middle;whiteSpace=wrap;rounded=0;" vertex="1" parent="1">
          <mxGeometry x="847" y="273" width="100" height="20" as="geometry" />
        </mxCell>
        <mxCell id="FvK3mN-A5cX9Fj2j0IP9-14" value="PK" style="text;html=1;align=center;verticalAlign=middle;whiteSpace=wrap;rounded=0;" vertex="1" parent="1">
          <mxGeometry x="827" y="299" width="20" height="10" as="geometry" />
        </mxCell>
        <mxCell id="FvK3mN-A5cX9Fj2j0IP9-15" value="ID&lt;div&gt;Type&lt;/div&gt;&lt;div style=&quot;&quot;&gt;Capacity&lt;/div&gt;" style="text;html=1;align=left;verticalAlign=middle;whiteSpace=wrap;rounded=0;" vertex="1" parent="1">
          <mxGeometry x="847" y="304" width="100" height="30" as="geometry" />
        </mxCell>
        <mxCell id="FvK3mN-A5cX9Fj2j0IP9-26" value="" style="endArrow=none;html=1;rounded=0;shape=link;width=-3.913043478260869;" edge="1" parent="1">
          <mxGeometry width="50" height="50" relative="1" as="geometry">
            <mxPoint x="251.57" y="121" as="sourcePoint" />
            <mxPoint x="251.57" y="101" as="targetPoint" />
          </mxGeometry>
        </mxCell>
        <mxCell id="FvK3mN-A5cX9Fj2j0IP9-27" value="" style="endArrow=none;html=1;rounded=0;shape=link;width=-3.913043478260869;" edge="1" parent="1">
          <mxGeometry width="50" height="50" relative="1" as="geometry">
            <mxPoint x="599" y="120" as="sourcePoint" />
            <mxPoint x="599" y="100" as="targetPoint" />
          </mxGeometry>
        </mxCell>
        <mxCell id="FvK3mN-A5cX9Fj2j0IP9-30" value="FK" style="text;html=1;align=center;verticalAlign=middle;whiteSpace=wrap;rounded=0;" vertex="1" parent="1">
          <mxGeometry x="90" y="362" width="20" height="14" as="geometry" />
        </mxCell>
        <mxCell id="FvK3mN-A5cX9Fj2j0IP9-34" value="" style="endArrow=none;html=1;rounded=0;" edge="1" parent="1">
          <mxGeometry width="50" height="50" relative="1" as="geometry">
            <mxPoint x="210" y="375" as="sourcePoint" />
            <mxPoint x="215" y="370" as="targetPoint" />
          </mxGeometry>
        </mxCell>
        <mxCell id="FvK3mN-A5cX9Fj2j0IP9-35" value="" style="endArrow=none;html=1;rounded=0;" edge="1" parent="1">
          <mxGeometry width="50" height="50" relative="1" as="geometry">
            <mxPoint x="215" y="370" as="sourcePoint" />
            <mxPoint x="210" y="365" as="targetPoint" />
          </mxGeometry>
        </mxCell>
        <mxCell id="FvK3mN-A5cX9Fj2j0IP9-36" value="" style="endArrow=none;html=1;rounded=0;" edge="1" parent="1">
          <mxGeometry width="50" height="50" relative="1" as="geometry">
            <mxPoint x="219" y="365" as="sourcePoint" />
            <mxPoint x="219" y="375" as="targetPoint" />
          </mxGeometry>
        </mxCell>
        <mxCell id="FvK3mN-A5cX9Fj2j0IP9-37" value="LibraryID" style="text;html=1;align=left;verticalAlign=middle;whiteSpace=wrap;rounded=0;" vertex="1" parent="1">
          <mxGeometry x="112" y="353" width="60" height="30" as="geometry" />
        </mxCell>
        <mxCell id="FvK3mN-A5cX9Fj2j0IP9-39" value="FK" style="text;html=1;align=center;verticalAlign=middle;whiteSpace=wrap;rounded=0;" vertex="1" parent="1">
          <mxGeometry x="91" y="316" width="20" height="14" as="geometry" />
        </mxCell>
        <mxCell id="FvK3mN-A5cX9Fj2j0IP9-40" value="FK" style="text;html=1;align=center;verticalAlign=middle;whiteSpace=wrap;rounded=0;" vertex="1" parent="1">
          <mxGeometry x="90" y="379" width="20" height="14" as="geometry" />
        </mxCell>
        <mxCell id="FvK3mN-A5cX9Fj2j0IP9-41" value="HistoryID" style="text;html=1;align=left;verticalAlign=middle;whiteSpace=wrap;rounded=0;" vertex="1" parent="1">
          <mxGeometry x="112" y="371" width="60" height="30" as="geometry" />
        </mxCell>
        <mxCell id="FvK3mN-A5cX9Fj2j0IP9-44" value="" style="endArrow=none;html=1;rounded=0;shape=link;width=-3.913043478260869;" edge="1" parent="1">
          <mxGeometry width="50" height="50" relative="1" as="geometry">
            <mxPoint x="82" y="501" as="sourcePoint" />
            <mxPoint x="82" y="481" as="targetPoint" />
          </mxGeometry>
        </mxCell>
        <mxCell id="FvK3mN-A5cX9Fj2j0IP9-45" value="" style="endArrow=none;html=1;rounded=0;shape=link;width=-3.913043478260869;" edge="1" parent="1">
          <mxGeometry width="50" height="50" relative="1" as="geometry">
            <mxPoint x="80" y="393" as="sourcePoint" />
            <mxPoint x="80" y="373" as="targetPoint" />
          </mxGeometry>
        </mxCell>
        <mxCell id="FvK3mN-A5cX9Fj2j0IP9-47" value="ID&lt;div&gt;Capacity&lt;/div&gt;" style="text;html=1;align=left;verticalAlign=middle;whiteSpace=wrap;rounded=0;" vertex="1" parent="1">
          <mxGeometry x="850" y="176" width="100" height="30" as="geometry" />
        </mxCell>
        <mxCell id="FvK3mN-A5cX9Fj2j0IP9-49" value="FK" style="text;html=1;align=center;verticalAlign=middle;whiteSpace=wrap;rounded=0;" vertex="1" parent="1">
          <mxGeometry x="830" y="211" width="20" height="10" as="geometry" />
        </mxCell>
        <mxCell id="FvK3mN-A5cX9Fj2j0IP9-50" value="" style="endArrow=none;html=1;rounded=0;exitX=1.007;exitY=0.285;exitDx=0;exitDy=0;exitPerimeter=0;entryX=-0.018;entryY=0.397;entryDx=0;entryDy=0;entryPerimeter=0;" edge="1" parent="1" source="oDdCdlW6J0dr1nh9Fcjd-64" target="FvK3mN-A5cX9Fj2j0IP9-49">
          <mxGeometry width="50" height="50" relative="1" as="geometry">
            <mxPoint x="750" y="200" as="sourcePoint" />
            <mxPoint x="829" y="215" as="targetPoint" />
            <Array as="points">
              <mxPoint x="780" y="109" />
              <mxPoint x="780" y="215" />
            </Array>
          </mxGeometry>
        </mxCell>
        <mxCell id="FvK3mN-A5cX9Fj2j0IP9-51" value="" style="endArrow=none;html=1;rounded=0;shape=link;width=-3.913043478260869;" edge="1" parent="1">
          <mxGeometry width="50" height="50" relative="1" as="geometry">
            <mxPoint x="735" y="119" as="sourcePoint" />
            <mxPoint x="735" y="99" as="targetPoint" />
          </mxGeometry>
        </mxCell>
        <mxCell id="FvK3mN-A5cX9Fj2j0IP9-52" value="" style="endArrow=none;html=1;rounded=0;" edge="1" parent="1">
          <mxGeometry width="50" height="50" relative="1" as="geometry">
            <mxPoint x="825" y="215" as="sourcePoint" />
            <mxPoint x="830" y="220" as="targetPoint" />
          </mxGeometry>
        </mxCell>
        <mxCell id="FvK3mN-A5cX9Fj2j0IP9-53" value="" style="endArrow=none;html=1;rounded=0;" edge="1" parent="1">
          <mxGeometry width="50" height="50" relative="1" as="geometry">
            <mxPoint x="830" y="210" as="sourcePoint" />
            <mxPoint x="825" y="215" as="targetPoint" />
          </mxGeometry>
        </mxCell>
        <mxCell id="FvK3mN-A5cX9Fj2j0IP9-54" value="" style="endArrow=none;html=1;rounded=0;" edge="1" parent="1">
          <mxGeometry width="50" height="50" relative="1" as="geometry">
            <mxPoint x="822" y="220" as="sourcePoint" />
            <mxPoint x="822" y="210" as="targetPoint" />
          </mxGeometry>
        </mxCell>
        <mxCell id="FvK3mN-A5cX9Fj2j0IP9-56" value="FK" style="text;html=1;align=center;verticalAlign=middle;whiteSpace=wrap;rounded=0;" vertex="1" parent="1">
          <mxGeometry x="827" y="345" width="20" height="10" as="geometry" />
        </mxCell>
        <mxCell id="FvK3mN-A5cX9Fj2j0IP9-57" value="LibraryID" style="text;html=1;align=center;verticalAlign=middle;whiteSpace=wrap;rounded=0;" vertex="1" parent="1">
          <mxGeometry x="866" y="345" width="20" height="10" as="geometry" />
        </mxCell>
        <mxCell id="FvK3mN-A5cX9Fj2j0IP9-59" value="" style="endArrow=none;html=1;rounded=0;exitX=-0.006;exitY=0.793;exitDx=0;exitDy=0;exitPerimeter=0;" edge="1" parent="1" source="FvK3mN-A5cX9Fj2j0IP9-12">
          <mxGeometry width="50" height="50" relative="1" as="geometry">
            <mxPoint x="780" y="300" as="sourcePoint" />
            <mxPoint x="780" y="210" as="targetPoint" />
            <Array as="points">
              <mxPoint x="780" y="350" />
            </Array>
          </mxGeometry>
        </mxCell>
        <mxCell id="FvK3mN-A5cX9Fj2j0IP9-60" value="" style="endArrow=none;html=1;rounded=0;" edge="1" parent="1">
          <mxGeometry width="50" height="50" relative="1" as="geometry">
            <mxPoint x="822" y="350" as="sourcePoint" />
            <mxPoint x="827" y="355" as="targetPoint" />
          </mxGeometry>
        </mxCell>
        <mxCell id="FvK3mN-A5cX9Fj2j0IP9-61" value="" style="endArrow=none;html=1;rounded=0;" edge="1" parent="1">
          <mxGeometry width="50" height="50" relative="1" as="geometry">
            <mxPoint x="827" y="345" as="sourcePoint" />
            <mxPoint x="822" y="350" as="targetPoint" />
          </mxGeometry>
        </mxCell>
        <mxCell id="FvK3mN-A5cX9Fj2j0IP9-62" value="" style="endArrow=none;html=1;rounded=0;" edge="1" parent="1">
          <mxGeometry width="50" height="50" relative="1" as="geometry">
            <mxPoint x="819" y="355" as="sourcePoint" />
            <mxPoint x="819" y="345" as="targetPoint" />
          </mxGeometry>
        </mxCell>
        <mxCell id="FvK3mN-A5cX9Fj2j0IP9-64" value="FK" style="text;html=1;align=center;verticalAlign=middle;whiteSpace=wrap;rounded=0;" vertex="1" parent="1">
          <mxGeometry x="818" y="592" width="20" height="10" as="geometry" />
        </mxCell>
        <mxCell id="FvK3mN-A5cX9Fj2j0IP9-65" value="BookID" style="text;html=1;align=center;verticalAlign=middle;whiteSpace=wrap;rounded=0;" vertex="1" parent="1">
          <mxGeometry x="853" y="591" width="20" height="10" as="geometry" />
        </mxCell>
        <mxCell id="FvK3mN-A5cX9Fj2j0IP9-66" value="" style="endArrow=none;html=1;rounded=0;exitX=1;exitY=0.25;exitDx=0;exitDy=0;entryX=-0.003;entryY=0.629;entryDx=0;entryDy=0;entryPerimeter=0;" edge="1" parent="1" source="oDdCdlW6J0dr1nh9Fcjd-80" target="oDdCdlW6J0dr1nh9Fcjd-105">
          <mxGeometry width="50" height="50" relative="1" as="geometry">
            <mxPoint x="670" y="441" as="sourcePoint" />
            <mxPoint x="720" y="391" as="targetPoint" />
            <Array as="points">
              <mxPoint x="770" y="549" />
              <mxPoint x="770" y="596" />
            </Array>
          </mxGeometry>
        </mxCell>
        <mxCell id="FvK3mN-A5cX9Fj2j0IP9-67" value="" style="endArrow=none;html=1;rounded=0;shape=link;width=-3.913043478260869;" edge="1" parent="1">
          <mxGeometry width="50" height="50" relative="1" as="geometry">
            <mxPoint x="739" y="559" as="sourcePoint" />
            <mxPoint x="739" y="539" as="targetPoint" />
          </mxGeometry>
        </mxCell>
        <mxCell id="FvK3mN-A5cX9Fj2j0IP9-68" value="" style="endArrow=none;html=1;rounded=0;" edge="1" parent="1">
          <mxGeometry width="50" height="50" relative="1" as="geometry">
            <mxPoint x="813" y="596" as="sourcePoint" />
            <mxPoint x="818" y="601" as="targetPoint" />
          </mxGeometry>
        </mxCell>
        <mxCell id="FvK3mN-A5cX9Fj2j0IP9-69" value="" style="endArrow=none;html=1;rounded=0;" edge="1" parent="1">
          <mxGeometry width="50" height="50" relative="1" as="geometry">
            <mxPoint x="818" y="591" as="sourcePoint" />
            <mxPoint x="813" y="596" as="targetPoint" />
          </mxGeometry>
        </mxCell>
        <mxCell id="FvK3mN-A5cX9Fj2j0IP9-70" value="" style="endArrow=none;html=1;rounded=0;" edge="1" parent="1">
          <mxGeometry width="50" height="50" relative="1" as="geometry">
            <mxPoint x="810" y="601" as="sourcePoint" />
            <mxPoint x="810" y="591" as="targetPoint" />
          </mxGeometry>
        </mxCell>
        <mxCell id="FvK3mN-A5cX9Fj2j0IP9-72" value="BookID" style="text;html=1;align=center;verticalAlign=middle;whiteSpace=wrap;rounded=0;" vertex="1" parent="1">
          <mxGeometry x="426" y="618" width="20" height="10" as="geometry" />
        </mxCell>
        <mxCell id="FvK3mN-A5cX9Fj2j0IP9-73" value="" style="endArrow=none;html=1;rounded=0;exitX=0.993;exitY=0.923;exitDx=0;exitDy=0;entryX=-0.004;entryY=0.272;entryDx=0;entryDy=0;entryPerimeter=0;exitPerimeter=0;" edge="1" parent="1" source="oDdCdlW6J0dr1nh9Fcjd-55" target="oDdCdlW6J0dr1nh9Fcjd-80">
          <mxGeometry width="50" height="50" relative="1" as="geometry">
            <mxPoint x="500" y="570" as="sourcePoint" />
            <mxPoint x="550" y="520" as="targetPoint" />
            <Array as="points">
              <mxPoint x="550" y="622" />
              <mxPoint x="550" y="550" />
            </Array>
          </mxGeometry>
        </mxCell>
        <mxCell id="FvK3mN-A5cX9Fj2j0IP9-74" value="" style="endArrow=none;html=1;rounded=0;shape=link;width=-3.913043478260869;" edge="1" parent="1">
          <mxGeometry width="50" height="50" relative="1" as="geometry">
            <mxPoint x="578" y="560" as="sourcePoint" />
            <mxPoint x="578" y="540" as="targetPoint" />
          </mxGeometry>
        </mxCell>
        <mxCell id="FvK3mN-A5cX9Fj2j0IP9-75" value="" style="endArrow=none;html=1;rounded=0;" edge="1" parent="1">
          <mxGeometry width="50" height="50" relative="1" as="geometry">
            <mxPoint x="508" y="627" as="sourcePoint" />
            <mxPoint x="513" y="622" as="targetPoint" />
          </mxGeometry>
        </mxCell>
        <mxCell id="FvK3mN-A5cX9Fj2j0IP9-76" value="" style="endArrow=none;html=1;rounded=0;" edge="1" parent="1">
          <mxGeometry width="50" height="50" relative="1" as="geometry">
            <mxPoint x="513" y="622" as="sourcePoint" />
            <mxPoint x="508" y="617" as="targetPoint" />
          </mxGeometry>
        </mxCell>
        <mxCell id="FvK3mN-A5cX9Fj2j0IP9-77" value="" style="endArrow=none;html=1;rounded=0;" edge="1" parent="1">
          <mxGeometry width="50" height="50" relative="1" as="geometry">
            <mxPoint x="517" y="617" as="sourcePoint" />
            <mxPoint x="517" y="627" as="targetPoint" />
          </mxGeometry>
        </mxCell>
        <mxCell id="FvK3mN-A5cX9Fj2j0IP9-79" value="FK" style="text;html=1;align=center;verticalAlign=middle;whiteSpace=wrap;rounded=0;" vertex="1" parent="1">
          <mxGeometry x="818" y="612" width="20" height="10" as="geometry" />
        </mxCell>
        <mxCell id="FvK3mN-A5cX9Fj2j0IP9-80" value="HistoryID" style="text;html=1;align=center;verticalAlign=middle;whiteSpace=wrap;rounded=0;" vertex="1" parent="1">
          <mxGeometry x="858" y="612" width="20" height="10" as="geometry" />
        </mxCell>
        <mxCell id="FvK3mN-A5cX9Fj2j0IP9-81" value="" style="endArrow=none;html=1;rounded=0;entryX=0.995;entryY=0.407;entryDx=0;entryDy=0;entryPerimeter=0;exitX=-0.028;exitY=0.621;exitDx=0;exitDy=0;exitPerimeter=0;" edge="1" parent="1" source="FvK3mN-A5cX9Fj2j0IP9-79" target="FvK3mN-A5cX9Fj2j0IP9-6">
          <mxGeometry width="50" height="50" relative="1" as="geometry">
            <mxPoint x="470" y="550" as="sourcePoint" />
            <mxPoint x="520" y="500" as="targetPoint" />
            <Array as="points">
              <mxPoint x="790" y="618" />
              <mxPoint x="790" y="680" />
              <mxPoint x="300" y="680" />
              <mxPoint x="300" y="493" />
            </Array>
          </mxGeometry>
        </mxCell>
        <mxCell id="FvK3mN-A5cX9Fj2j0IP9-82" value="" style="endArrow=none;html=1;rounded=0;" edge="1" parent="1">
          <mxGeometry width="50" height="50" relative="1" as="geometry">
            <mxPoint x="813" y="618" as="sourcePoint" />
            <mxPoint x="818" y="623" as="targetPoint" />
          </mxGeometry>
        </mxCell>
        <mxCell id="FvK3mN-A5cX9Fj2j0IP9-83" value="" style="endArrow=none;html=1;rounded=0;" edge="1" parent="1">
          <mxGeometry width="50" height="50" relative="1" as="geometry">
            <mxPoint x="818" y="613" as="sourcePoint" />
            <mxPoint x="813" y="618" as="targetPoint" />
          </mxGeometry>
        </mxCell>
        <mxCell id="FvK3mN-A5cX9Fj2j0IP9-84" value="" style="endArrow=none;html=1;rounded=0;" edge="1" parent="1">
          <mxGeometry width="50" height="50" relative="1" as="geometry">
            <mxPoint x="810" y="623" as="sourcePoint" />
            <mxPoint x="810" y="613" as="targetPoint" />
          </mxGeometry>
        </mxCell>
        <mxCell id="FvK3mN-A5cX9Fj2j0IP9-85" value="" style="endArrow=none;html=1;rounded=0;shape=link;width=-3.913043478260869;" edge="1" parent="1">
          <mxGeometry width="50" height="50" relative="1" as="geometry">
            <mxPoint x="264" y="503" as="sourcePoint" />
            <mxPoint x="264" y="483" as="targetPoint" />
          </mxGeometry>
        </mxCell>
      </root>
    </mxGraphModel>
  </diagram>
</mxfile>
